# Blender 4.0.2
# www.blender.org
o Cube
v -99.825569 -2.436210 -1.000000 1.0000 1.0000 1.0000
v -99.666801 -1.785801 1.000000 1.0000 1.0000 1.0000
v -99.984337 0.576644 -1.000000 1.0000 1.0000 1.0000
v -99.723503 -0.602343 1.000000 1.0000 1.0000 1.0000
v 100.064850 -2.419181 -1.000000 1.0000 1.0000 1.0000
v 99.872055 -1.859499 1.000000 1.0000 1.0000 1.0000
v 99.906075 0.593673 -1.000000 1.0000 1.0000 1.0000
v 99.747307 -0.619337 1.000000 1.0000 1.0000 1.0000
v -4.051857 10.883093 -1.000000 1.0000 1.0000 1.0000
v -3.712917 11.222033 1.000000 1.0000 1.0000 1.0000
v -4.051857 12.883093 -1.000000 1.0000 1.0000 1.0000
v -3.712917 12.544153 1.000000 1.0000 1.0000 1.0000
v -2.051857 10.883093 -1.000000 1.0000 1.0000 1.0000
v -2.390797 11.222033 1.000000 1.0000 1.0000 1.0000
v -2.051857 12.883093 -1.000000 1.0000 1.0000 1.0000
v -2.390797 12.544153 1.000000 1.0000 1.0000 1.0000
v -4.270985 2.354682 -1.000000 1.0000 1.0000 1.0000
v -3.932045 2.549675 1.000000 1.0000 1.0000 1.0000
v -4.270985 2.882309 -1.000000 1.0000 1.0000 1.0000
v -3.932045 2.687316 1.000000 1.0000 1.0000 1.0000
v -0.913770 2.354682 -1.000000 1.0000 1.0000 1.0000
v -1.252710 2.549675 1.000000 1.0000 1.0000 1.0000
v -0.913770 2.882309 -1.000000 1.0000 1.0000 1.0000
v -1.252710 2.687316 1.000000 1.0000 1.0000 1.0000
v -8.769044 9.677886 -1.000000 1.0000 1.0000 1.0000
v -8.430103 10.016826 1.000000 1.0000 1.0000 1.0000
v -8.769044 10.740173 -1.000000 1.0000 1.0000 1.0000
v -8.430103 10.401234 1.000000 1.0000 1.0000 1.0000
v -5.411829 9.677886 -1.000000 1.0000 1.0000 1.0000
v -5.750769 10.016826 1.000000 1.0000 1.0000 1.0000
v -5.411829 10.740173 -1.000000 1.0000 1.0000 1.0000
v -5.750769 10.401234 1.000000 1.0000 1.0000 1.0000
v 0.739360 5.552775 -1.000000 0.6236 0.3529 0.5451
v 1.078300 5.747768 1.000000 0.5921 0.2667 0.5019
v 0.739360 6.080402 -1.000000 0.6157 0.3333 0.5333
v 1.078300 5.885409 1.000000 0.5921 0.2667 0.5019
v 10.172951 5.552775 -1.000000 0.5921 0.2667 0.5019
v 9.834010 5.747768 1.000000 0.5921 0.2667 0.5019
v 10.172951 6.080402 -1.000000 0.5921 0.2667 0.5019
v 9.834010 5.885409 1.000000 0.5921 0.2667 0.5019
v -14.865088 -1.618586 -1.000000 1.0000 1.0000 1.0000
v -15.060081 -1.279645 1.000000 1.0000 1.0000 1.0000
v -15.392715 -1.618586 -1.000000 1.0000 1.0000 1.0000
v -15.197721 -1.279645 1.000000 1.0000 1.0000 1.0000
v -14.865088 4.226035 -1.000000 1.0000 1.0000 1.0000
v -15.060081 3.887094 1.000000 1.0000 1.0000 1.0000
v -15.392715 4.226035 -1.000000 1.0000 1.0000 1.0000
v -15.197721 3.887094 1.000000 1.0000 1.0000 1.0000
v 4.825811 12.517511 -1.000000 0.6000 0.2823 0.5098
v 5.164752 12.712503 1.000000 0.5921 0.2667 0.5019
v 4.825811 13.045137 -1.000000 0.5961 0.2784 0.5059
v 5.164752 12.850144 1.000000 0.5921 0.2667 0.5019
v 10.279553 12.517511 -1.000000 0.6079 0.3059 0.5216
v 9.940613 12.712503 1.000000 0.5921 0.2667 0.5019
v 10.279553 13.045137 -1.000000 0.6039 0.2980 0.5176
v 9.940613 12.850144 1.000000 0.5921 0.2667 0.5019
v 4.861346 19.553316 -1.000000 0.5961 0.2784 0.5059
v 5.200286 19.748308 1.000000 0.5921 0.2667 0.5019
v 4.861346 20.080942 -1.000000 0.5921 0.2706 0.5059
v 5.200286 19.885948 1.000000 0.5921 0.2667 0.5019
v 10.315087 19.553316 -1.000000 0.6941 0.5019 0.6315
v 9.976147 19.748308 1.000000 0.5921 0.2667 0.5019
v 10.315087 20.080942 -1.000000 0.6706 0.4550 0.6039
v 9.976147 19.885948 1.000000 0.5921 0.2667 0.5019
v 14.846502 24.634729 -1.000000 0.5921 0.2667 0.5019
v 15.185442 24.829721 1.000000 0.5921 0.2667 0.5019
v 14.846502 25.162355 -1.000000 0.5921 0.2667 0.5019
v 15.185442 24.967361 1.000000 0.5921 0.2667 0.5019
v 20.300243 24.634729 -1.000000 0.6354 0.3804 0.5608
v 19.961302 24.829721 1.000000 0.5921 0.2667 0.5019
v 20.300243 25.162355 -1.000000 0.6510 0.4157 0.5764
v 19.961302 24.967361 1.000000 0.5921 0.2667 0.5019
v -8.101845 24.860304 -1.000000 0.4039 0.1176 0.5921
v -7.762905 25.199244 1.000000 0.4078 0.1216 0.5961
v -12.217909 30.117620 -1.000000 0.5333 0.2471 0.7804
v -11.494014 29.778681 1.000000 0.5333 0.2392 0.7960
v 8.212502 24.735697 -1.000000 0.6628 0.5098 1.0000
v 7.873562 25.074636 1.000000 0.6197 0.4353 1.0000
v 12.537587 30.198849 -1.000000 0.5255 0.2196 0.7764
v 11.813691 29.859909 1.000000 0.5530 0.2902 0.8392
v 4.648140 33.283798 -1.000000 0.8117 0.4392 0.3961
v 4.987080 33.478790 1.000000 0.8117 0.4392 0.3961
v 4.648140 33.811424 -1.000000 0.8117 0.4392 0.3961
v 4.987080 33.616425 1.000000 0.8117 0.4392 0.3961
v 10.101881 33.283798 -1.000000 0.8039 0.4353 0.3882
v 9.762941 33.478790 1.000000 0.8117 0.4392 0.3961
v 10.101881 33.811424 -1.000000 0.7960 0.4314 0.3843
v 9.762941 33.616425 1.000000 0.8117 0.4392 0.3961
v -10.233651 33.283798 -1.000000 0.8117 0.4392 0.3961
v -9.894711 33.478790 1.000000 0.8117 0.4392 0.3961
v -10.233651 33.811424 -1.000000 0.8117 0.4392 0.3961
v -9.894711 33.616425 1.000000 0.8117 0.4392 0.3961
v -4.779910 33.283798 -1.000000 0.8117 0.4392 0.3961
v -5.118850 33.478790 1.000000 0.8117 0.4392 0.3961
v -4.779910 33.811424 -1.000000 0.8117 0.4392 0.3961
v -5.118850 33.616425 1.000000 0.8117 0.4392 0.3961
v -2.771435 36.737740 -1.000000 0.8117 0.4392 0.3961
v -2.432494 36.932732 1.000000 0.8117 0.4392 0.3961
v -2.771435 37.265366 -1.000000 0.8117 0.4392 0.3961
v -2.432494 37.070366 1.000000 0.8117 0.4392 0.3961
v 2.682306 36.737740 -1.000000 0.8000 0.4353 0.3843
v 2.343366 36.932732 1.000000 0.8117 0.4392 0.3961
v 2.682306 37.265366 -1.000000 0.7960 0.4353 0.3804
v 2.343366 37.070366 1.000000 0.8117 0.4392 0.3961
v 29.804373 29.718933 -1.000000 1.0000 1.0000 1.0000
v 30.019350 29.824396 1.000000 1.0000 1.0000 1.0000
v 29.804373 30.246559 -1.000000 1.0000 1.0000 1.0000
v 30.019350 29.962036 1.000000 1.0000 1.0000 1.0000
v 60.163330 9.750547 -1.000000 1.0000 1.0000 1.0000
v 59.948353 10.077766 1.000000 1.0000 1.0000 1.0000
v 60.163330 10.278173 -1.000000 1.0000 1.0000 1.0000
v 59.948353 10.215406 1.000000 1.0000 1.0000 1.0000
v 16.736389 6.665884 -1.000000 1.0000 1.0000 1.0000
v 17.075331 6.860877 1.000000 1.0000 1.0000 1.0000
v 16.736389 7.193511 -1.000000 1.0000 1.0000 1.0000
v 17.075331 6.998518 1.000000 1.0000 1.0000 1.0000
v 100.517174 6.665884 -1.000000 1.0000 1.0000 1.0000
v 100.178230 6.860877 1.000000 1.0000 1.0000 1.0000
v 100.517174 7.193511 -1.000000 1.0000 1.0000 1.0000
v 100.178230 6.998518 1.000000 1.0000 1.0000 1.0000
v 8.948425 -1.388586 -0.041491 1.0000 1.0000 1.0000
v 9.287367 -1.193594 0.322830 1.0000 1.0000 1.0000
v 9.287367 -1.055953 0.322830 1.0000 1.0000 1.0000
v 8.948425 -0.860960 -0.041491 1.0000 1.0000 1.0000
v -15.171975 6.567024 -1.000000 1.0000 1.0000 1.0000
v -14.833035 6.762016 1.000000 1.0000 1.0000 1.0000
v -15.171975 7.094651 -1.000000 1.0000 1.0000 1.0000
v -14.833035 6.899657 1.000000 1.0000 1.0000 1.0000
v -7.752004 3.694655 -1.000000 1.0000 1.0000 1.0000
v -8.090944 3.889647 1.000000 1.0000 1.0000 1.0000
v -7.752004 4.222282 -1.000000 1.0000 1.0000 1.0000
v -8.090944 4.027288 1.000000 1.0000 1.0000 1.0000
vn -0.9937 -0.0524 0.0987
vn -0.0001 0.8615 0.5078
vn 0.9925 0.0523 0.1105
vn 0.0001 -0.9630 0.2695
vn -0.0000 -0.0000 1.0000
vn -0.9859 -0.0000 0.1671
vn -0.0000 0.9859 0.1671
vn 0.9859 -0.0000 0.1671
vn -0.0000 -0.9859 0.1671
vn -0.0000 0.9953 0.0970
vn -0.0000 -0.9953 0.0970
vn -0.9953 -0.0000 0.0970
vn 0.9953 -0.0000 0.0970
vn -0.7749 -0.6067 0.1776
vn -0.0032 0.9861 0.1660
vn 0.7718 -0.6110 0.1758
vn -0.0075 -0.9861 0.1658
vn -0.9943 -0.0000 0.1069
vn 0.5485 0.8340 0.0597
vn 0.9943 -0.0000 0.1069
vn -0.5479 -0.8330 0.0774
vn -0.0866 -0.0000 0.9962
vn -0.7321 -0.0000 0.6811
vn -0.7140 0.6747 0.1868
vn 0.6778 -0.6866 -0.2630
vn -0.1222 -0.0000 -0.9925
vn 0.3608 0.9322 0.0297
vn -0.3608 -0.9322 0.0297
vn -0.9944 -0.0476 0.0944
vn 0.0001 0.8550 0.5186
vn 0.9927 0.0998 0.0677
vn -0.0004 -0.9510 0.3093
vn -0.7541 -0.6144 0.2319
vn -0.0034 0.9857 0.1683
vn 0.7509 -0.6183 0.2320
vn -0.0079 -0.9857 0.1684
vn 0.5487 0.8317 0.0851
vn -0.5478 -0.8303 0.1027
vn -0.4605 0.5300 0.7121
vn 0.7201 -0.6917 -0.0546
vn 0.3873 0.9090 0.1543
vn -0.3873 -0.9090 0.1542
vt 0.375000 0.000000
vt 0.625000 0.250000
vt 0.375000 0.250000
vt 0.375000 0.500000
vt 0.625000 0.500000
vt 0.375000 0.750000
vt 0.625000 0.750000
vt 0.375000 1.000000
vt 0.875000 0.750000
vt 0.625000 0.000000
vt 0.875000 0.500000
vt 0.625000 1.000000
vt 0.000000 0.000000
s 0
f 1/1/1 4/2/1 3/3/1
f 4/2/2 7/4/2 3/3/2
f 8/5/3 5/6/3 7/4/3
f 6/7/4 1/8/4 5/6/4
f 8/5/5 2/9/5 6/7/5
f 10/10/6 11/3/6 9/1/6
f 12/2/7 15/4/7 11/3/7
f 16/5/8 13/6/8 15/4/8
f 14/7/9 9/8/9 13/6/9
f 18/10/6 19/3/6 17/1/6
f 12/11/5 14/7/5 16/5/5
f 20/2/10 23/4/10 19/3/10
f 24/5/8 21/6/8 23/4/8
f 22/7/11 17/8/11 21/6/11
f 20/11/5 22/7/5 24/5/5
f 26/10/6 27/3/6 25/1/6
f 28/2/7 31/4/7 27/3/7
f 32/5/8 29/6/8 31/4/8
f 29/6/9 26/12/9 25/8/9
f 28/11/5 30/7/5 32/5/5
f 34/10/6 35/3/6 33/1/6
f 36/2/10 39/4/10 35/3/10
f 40/5/8 37/6/8 39/4/8
f 38/7/11 33/8/11 37/6/11
f 36/11/5 38/7/5 40/5/5
f 42/10/9 43/3/9 41/1/9
f 44/2/12 47/4/12 43/3/12
f 48/5/7 45/6/7 47/4/7
f 46/7/13 41/8/13 45/6/13
f 44/11/5 46/7/5 48/5/5
f 50/10/6 51/3/6 49/1/6
f 52/2/10 55/4/10 51/3/10
f 56/5/8 53/6/8 55/4/8
f 54/7/11 49/8/11 53/6/11
f 52/11/5 54/7/5 56/5/5
f 58/10/6 59/3/6 57/1/6
f 60/2/10 63/4/10 59/3/10
f 64/5/8 61/6/8 63/4/8
f 62/7/11 57/8/11 61/6/11
f 60/11/5 62/7/5 64/5/5
f 66/10/6 67/3/6 65/1/6
f 67/3/10 72/5/10 71/4/10
f 72/5/8 69/6/8 71/4/8
f 70/7/11 65/8/11 69/6/11
f 68/11/5 70/7/5 72/5/5
f 73/1/14 76/2/14 75/3/14
f 75/3/15 80/5/15 79/4/15
f 80/5/16 77/6/16 79/4/16
f 78/7/17 73/8/17 77/6/17
f 76/11/5 78/7/5 80/5/5
f 82/10/6 83/3/6 81/1/6
f 84/2/10 87/4/10 83/3/10
f 88/5/8 85/6/8 87/4/8
f 86/7/11 81/8/11 85/6/11
f 84/11/5 86/7/5 88/5/5
f 89/1/6 92/2/6 91/3/6
f 92/2/10 95/4/10 91/3/10
f 96/5/8 93/6/8 95/4/8
f 94/7/11 89/8/11 93/6/11
f 92/11/5 94/7/5 96/5/5
f 97/1/6 100/2/6 99/3/6
f 100/2/10 103/4/10 99/3/10
f 104/5/8 101/6/8 103/4/8
f 102/7/11 97/8/11 101/6/11
f 100/11/5 102/7/5 104/5/5
f 105/1/18 108/2/18 107/3/18
f 108/2/19 111/4/19 107/3/19
f 111/4/20 110/7/20 109/6/20
f 110/7/21 105/8/21 109/6/21
f 112/5/5 106/9/5 110/7/5
f 116/2/10 119/4/10 115/3/10
f 120/5/8 117/6/8 119/4/8
f 118/7/11 113/8/11 117/6/11
f 116/11/5 118/7/5 120/5/5
f 114/9/22 123/11/22 122/9/22
f 121/8/23 123/2/23 124/3/23
f 115/3/24 123/2/24 116/2/24
f 113/8/25 122/12/25 121/8/25
f 113/13/26 124/13/26 115/13/26
f 126/10/6 127/3/6 125/1/6
f 128/2/27 131/4/27 127/3/27
f 132/5/8 129/6/8 131/4/8
f 130/7/28 125/8/28 129/6/28
f 132/5/5 126/9/5 130/7/5
f 1/1/29 2/10/29 4/2/29
f 4/2/30 8/5/30 7/4/30
f 8/5/31 6/7/31 5/6/31
f 6/7/32 2/12/32 1/8/32
f 8/5/5 4/11/5 2/9/5
f 10/10/6 12/2/6 11/3/6
f 12/2/7 16/5/7 15/4/7
f 16/5/8 14/7/8 13/6/8
f 14/7/9 10/12/9 9/8/9
f 18/10/6 20/2/6 19/3/6
f 12/11/5 10/9/5 14/7/5
f 20/2/10 24/5/10 23/4/10
f 24/5/8 22/7/8 21/6/8
f 22/7/11 18/12/11 17/8/11
f 20/11/5 18/9/5 22/7/5
f 26/10/6 28/2/6 27/3/6
f 28/2/7 32/5/7 31/4/7
f 32/5/8 30/7/8 29/6/8
f 29/6/9 30/7/9 26/12/9
f 28/11/5 26/9/5 30/7/5
f 34/10/6 36/2/6 35/3/6
f 36/2/10 40/5/10 39/4/10
f 40/5/8 38/7/8 37/6/8
f 38/7/11 34/12/11 33/8/11
f 36/11/5 34/9/5 38/7/5
f 42/10/9 44/2/9 43/3/9
f 44/2/12 48/5/12 47/4/12
f 48/5/7 46/7/7 45/6/7
f 46/7/13 42/12/13 41/8/13
f 44/11/5 42/9/5 46/7/5
f 50/10/6 52/2/6 51/3/6
f 52/2/10 56/5/10 55/4/10
f 56/5/8 54/7/8 53/6/8
f 54/7/11 50/12/11 49/8/11
f 52/11/5 50/9/5 54/7/5
f 58/10/6 60/2/6 59/3/6
f 60/2/10 64/5/10 63/4/10
f 64/5/8 62/7/8 61/6/8
f 62/7/11 58/12/11 57/8/11
f 60/11/5 58/9/5 62/7/5
f 66/10/6 68/2/6 67/3/6
f 67/3/10 68/2/10 72/5/10
f 72/5/8 70/7/8 69/6/8
f 70/7/11 66/12/11 65/8/11
f 68/11/5 66/9/5 70/7/5
f 73/1/33 74/10/33 76/2/33
f 75/3/34 76/2/34 80/5/34
f 80/5/35 78/7/35 77/6/35
f 78/7/36 74/12/36 73/8/36
f 76/11/5 74/9/5 78/7/5
f 82/10/6 84/2/6 83/3/6
f 84/2/10 88/5/10 87/4/10
f 88/5/8 86/7/8 85/6/8
f 86/7/11 82/12/11 81/8/11
f 84/11/5 82/9/5 86/7/5
f 89/1/6 90/10/6 92/2/6
f 92/2/10 96/5/10 95/4/10
f 96/5/8 94/7/8 93/6/8
f 94/7/11 90/12/11 89/8/11
f 92/11/5 90/9/5 94/7/5
f 97/1/6 98/10/6 100/2/6
f 100/2/10 104/5/10 103/4/10
f 104/5/8 102/7/8 101/6/8
f 102/7/11 98/12/11 97/8/11
f 100/11/5 98/9/5 102/7/5
f 105/1/18 106/10/18 108/2/18
f 108/2/37 112/5/37 111/4/37
f 111/4/20 112/5/20 110/7/20
f 110/7/38 106/12/38 105/8/38
f 112/5/5 108/11/5 106/9/5
f 116/2/10 120/5/10 119/4/10
f 120/5/8 118/7/8 117/6/8
f 118/7/11 114/12/11 113/8/11
f 116/11/5 114/9/5 118/7/5
f 114/9/22 116/11/22 123/11/22
f 121/8/23 122/9/23 123/2/23
f 115/3/39 124/3/39 123/2/39
f 113/8/40 114/12/40 122/12/40
f 113/13/26 121/13/26 124/13/26
f 126/10/6 128/2/6 127/3/6
f 128/2/41 132/5/41 131/4/41
f 132/5/8 130/7/8 129/6/8
f 130/7/42 126/12/42 125/8/42
f 132/5/5 128/11/5 126/9/5
